# xmcd
#
# Track frame offsets: 
#        150
#        19331
#        39224
#        49250
#        64428
#        84846
#        97821
#        117452
#        126086
#        141432
#        155682
#        173110
#        187172
#        197062
#        210824
#        221117
#        233848
#
# Disc length: 3208 seconds
#
# Revision: 0
# Processed by: cddbd v1.5.2PL0 Copyright (c) Steve Scherf et al.
# Submitted via: ExactAudioCopy v0.99pb4
#
DISCID=f40c8611
DTITLE=Dapper Dan Men - Hunting Bluegrass Squirrels
DYEAR=2008
DGENRE=Bluegrass
TTITLE0=Carry Brown
TTITLE1=Squirrel Hunters - Hawk's Got A Chicken - Jawbone
TTITLE2=If You've Got The Money, Honey
TTITLE3=Sin Wagon
TTITLE4=Lonesome, On'ry And Mean
TTITLE5=Montana Cowboys
TTITLE6=Pilgrim
TTITLE7=Old Joe Clark
TTITLE8=Tall Pines
TTITLE9=Gone
TTITLE10=Hey Lord
TTITLE11=Dixieland
TTITLE12=Sally Ann
TTITLE13=Long Gone Lonesome Blues
TTITLE14=Sold
TTITLE15=Leroy's Dustbowl Blues
TTITLE16=Bending Strings
EXTD=
EXTT0=
EXTT1=
EXTT2=
EXTT3=
EXTT4=
EXTT5=
EXTT6=
EXTT7=
EXTT8=
EXTT9=
EXTT10=
EXTT11=
EXTT12=
EXTT13=
EXTT14=
EXTT15=
EXTT16=
PLAYORDER=
